<svg xmlns="http://www.w3.org/2000/svg" width="53" height="53" viewBox="0 0 53 53"><path d="M0,0H53V53H0Z" fill="none"/><path d="M33.131,26.292A4.4,4.4,0,0,0,37,24.017L44.9,9.685A2.2,2.2,0,0,0,42.98,6.417H10.3L8.221,2H1V6.417H5.417l7.95,16.761-2.981,5.388a4.425,4.425,0,0,0,3.865,6.559h26.5V30.708H14.25l2.429-4.417ZM12.4,10.833H39.226L33.131,21.875h-15.5Zm1.855,26.5a4.417,4.417,0,1,0,4.417,4.417A4.411,4.411,0,0,0,14.25,37.333Zm22.083,0A4.417,4.417,0,1,0,40.75,41.75,4.411,4.411,0,0,0,36.333,37.333Z" transform="translate(1.208 2.417)"/></svg>